<svg width="34" height="32" viewBox="0 0 34 32" fill="none" xmlns="http://www.w3.org/2000/svg">
<path d="M25.134 27.66L9.288 11.775V7.25M25.134 27.66L29.705 23.078M25.134 27.66L27.745 30.276C27.8949 30.4261 28.0729 30.5452 28.2689 30.6264C28.4648 30.7076 28.6749 30.7495 28.887 30.7495C29.0991 30.7495 29.3092 30.7076 29.5051 30.6264C29.7011 30.5452 29.8791 30.4261 30.029 30.276L32.315 27.985C32.6181 27.6808 32.7882 27.2689 32.7882 26.8395C32.7882 26.4101 32.6181 25.9982 32.315 25.694L29.705 23.078M9.288 7.25H13.92L29.705 23.078M9.288 7.25H1M1 0.5H23M20.652 14H23M1 14H11.508M1 20.75H17.989M1 27.5H23" stroke="#F8F8F8" stroke-linecap="round" stroke-linejoin="round"/>
</svg>
