<svg width="216" height="216" viewBox="0 0 216 216" fill="none" xmlns="http://www.w3.org/2000/svg">
<g clip-path="url(#clip0_147_14)">
<path d="M27.45 83.79C27.0674 82.6475 26.9182 81.4398 27.011 80.2385C27.1039 79.0373 27.4371 77.8669 27.9907 76.7967C28.5443 75.7266 29.3072 74.7785 30.2341 74.0088C31.161 73.239 32.233 72.6631 33.3866 72.3154C34.5401 71.9676 35.7518 71.855 36.9497 71.9842C38.1476 72.1135 39.3074 72.482 40.3602 73.0678C41.4131 73.6536 42.3376 74.4449 43.0789 75.3947C43.8203 76.3444 44.3634 77.4334 44.676 78.597C63.45 141.471 152.514 141.48 171.306 78.633C171.643 77.4996 172.2 76.4436 172.945 75.5253C173.69 74.607 174.608 73.8445 175.648 73.2812C176.687 72.7179 177.828 72.365 179.004 72.2424C180.18 72.1199 181.369 72.2302 182.502 72.567C183.635 72.9038 184.691 73.4606 185.61 74.2056C186.528 74.9505 187.29 75.869 187.854 76.9087C188.417 77.9483 188.77 79.0887 188.893 80.2648C189.015 81.4409 188.905 82.6296 188.568 83.763C185.293 95.0237 179.74 105.491 172.251 114.516L183.726 126C185.365 127.697 186.273 129.971 186.252 132.331C186.232 134.69 185.285 136.948 183.616 138.616C181.948 140.285 179.69 141.232 177.331 141.252C174.971 141.273 172.697 140.365 171 138.726L159.201 126.927C152.833 131.729 145.799 135.576 138.321 138.348L141.534 150.363C141.877 151.515 141.985 152.725 141.853 153.92C141.72 155.115 141.35 156.271 140.763 157.321C140.176 158.37 139.385 159.291 138.436 160.03C137.488 160.769 136.401 161.31 135.239 161.621C134.078 161.933 132.866 162.009 131.675 161.844C130.484 161.679 129.338 161.278 128.305 160.663C127.272 160.048 126.372 159.232 125.659 158.264C124.947 157.296 124.435 156.194 124.155 155.025L120.879 142.812C112.356 144.072 103.644 144.072 95.121 142.812L91.845 155.025C91.5649 156.194 91.0534 157.296 90.3407 158.264C89.6279 159.232 88.7284 160.048 87.6951 160.663C86.6619 161.278 85.516 161.679 84.3249 161.844C83.1339 162.009 81.922 161.933 80.7607 161.621C79.5994 161.31 78.5123 160.769 77.5636 160.03C76.6149 159.291 75.8238 158.37 75.237 157.321C74.6503 156.271 74.2797 155.115 74.1473 153.92C74.0149 152.725 74.1232 151.515 74.466 150.363L77.679 138.348C70.2005 135.573 63.1665 131.723 56.799 126.918L45.009 138.726C43.3214 140.416 41.0316 141.366 38.6434 141.368C36.2551 141.37 33.964 140.423 32.274 138.735C30.584 137.047 29.6337 134.758 29.632 132.369C29.6303 129.981 30.5774 127.69 32.265 126L43.74 114.525C36.684 106.101 31.05 95.859 27.432 83.799L27.45 83.79Z" fill="#454C9B"/>
</g>
<defs>
<clipPath id="clip0_147_14">
<rect width="216" height="216" fill="white"/>
</clipPath>
</defs>
</svg>
