<svg width="204" height="162" viewBox="0 0 204 162" fill="none" xmlns="http://www.w3.org/2000/svg">
<path d="M5.36842 5.36842V0C3.94463 0 2.57915 0.565601 1.57238 1.57238C0.565601 2.57915 0 3.94463 0 5.36842H5.36842ZM198.632 5.36842H204C204 3.94463 203.434 2.57915 202.428 1.57238C201.421 0.565601 200.055 0 198.632 0V5.36842ZM5.36842 10.7368H198.632V0H5.36842V10.7368ZM193.263 5.36842V134.211H204V5.36842H193.263ZM177.158 150.316H26.8421V161.053H177.158V150.316ZM10.7368 134.211V5.36842H0V134.211H10.7368ZM26.8421 150.316C22.5707 150.316 18.4743 148.619 15.454 145.599C12.4336 142.578 10.7368 138.482 10.7368 134.211H0C0 141.329 2.828 148.157 7.86187 153.191C12.8957 158.225 19.7231 161.053 26.8421 161.053V150.316ZM193.263 134.211C193.263 138.482 191.566 142.578 188.546 145.599C185.526 148.619 181.429 150.316 177.158 150.316V161.053C184.277 161.053 191.104 158.225 196.138 153.191C201.172 148.157 204 141.329 204 134.211H193.263Z" fill="#454C9B"/>
<path d="M5.36847 5.36842L102 102L198.632 5.36842" stroke="#454C9B" stroke-linecap="round" stroke-linejoin="round"/>
</svg>
