<svg width="256" height="256" viewBox="0 0 256 256" fill="none" xmlns="http://www.w3.org/2000/svg">
<path d="M247.31 124.76C246.96 123.97 238.49 105.18 219.66 86.35C194.57 61.26 162.88 48 128 48C93.12 48 61.43 61.26 36.34 86.35C17.51 105.18 9.00003 124 8.69003 124.76C8.23516 125.783 8.00012 126.89 8.00012 128.01C8.00012 129.13 8.23516 130.237 8.69003 131.26C9.04003 132.05 17.51 150.83 36.34 169.66C61.43 194.74 93.12 208 128 208C162.88 208 194.57 194.74 219.66 169.66C238.49 150.83 246.96 132.05 247.31 131.26C247.765 130.237 248 129.13 248 128.01C248 126.89 247.765 125.783 247.31 124.76ZM128 192C97.22 192 70.33 180.81 48.07 158.75C38.9365 149.667 31.1659 139.31 25 128C31.1642 116.689 38.935 106.332 48.07 97.25C70.33 75.19 97.22 64 128 64C158.78 64 185.67 75.19 207.93 97.25C217.081 106.33 224.869 116.687 231.05 128C223.84 141.46 192.43 192 128 192ZM128 80C118.507 80 109.226 82.8152 101.333 88.0895C93.4391 93.3638 87.2868 100.86 83.6538 109.631C80.0208 118.402 79.0702 128.053 80.9223 137.364C82.7744 146.675 87.346 155.228 94.0589 161.941C100.772 168.654 109.325 173.226 118.636 175.078C127.947 176.93 137.598 175.979 146.369 172.346C155.14 168.713 162.636 162.561 167.911 154.667C173.185 146.774 176 137.494 176 128C175.987 115.274 170.925 103.072 161.927 94.0735C152.928 85.0746 140.726 80.0132 128 80ZM128 160C121.671 160 115.484 158.123 110.222 154.607C104.959 151.091 100.858 146.093 98.4359 140.246C96.0139 134.399 95.3802 127.965 96.6149 121.757C97.8496 115.55 100.897 109.848 105.373 105.373C109.848 100.897 115.55 97.8496 121.757 96.6149C127.965 95.3801 134.399 96.0138 140.246 98.4359C146.093 100.858 151.091 104.959 154.607 110.222C158.123 115.484 160 121.671 160 128C160 136.487 156.629 144.626 150.627 150.627C144.626 156.629 136.487 160 128 160Z" fill="#7645E8"/>
</svg>
