<svg width="240" height="160" viewBox="0 0 240 160" fill="none" xmlns="http://www.w3.org/2000/svg">
<path d="M239.31 76.76C238.96 75.97 230.49 57.18 211.66 38.35C186.57 13.26 154.88 0 120 0C85.12 0 53.43 13.26 28.34 38.35C9.51003 57.18 1.00003 76 0.690026 76.76C0.235158 77.7831 0.00012207 78.8903 0.00012207 80.01C0.00012207 81.1297 0.235158 82.2369 0.690026 83.26C1.04003 84.05 9.51003 102.83 28.34 121.66C53.43 146.74 85.12 160 120 160C154.88 160 186.57 146.74 211.66 121.66C230.49 102.83 238.96 84.05 239.31 83.26C239.765 82.2369 240 81.1297 240 80.01C240 78.8903 239.765 77.7831 239.31 76.76ZM120 144C89.22 144 62.33 132.81 40.07 110.75C30.9365 101.667 23.1659 91.3095 17 80C23.1642 68.6894 30.935 58.3318 40.07 49.25C62.33 27.19 89.22 16 120 16C150.78 16 177.67 27.19 199.93 49.25C209.081 58.3296 216.869 68.6872 223.05 80C215.84 93.46 184.43 144 120 144ZM120 32C110.507 32 101.226 34.8152 93.3327 40.0895C85.4391 45.3638 79.2868 52.8603 75.6538 61.6312C72.0208 70.402 71.0702 80.0532 72.9223 89.3643C74.7744 98.6754 79.346 107.228 86.0589 113.941C92.7718 120.654 101.325 125.226 110.636 127.078C119.947 128.93 129.598 127.979 138.369 124.346C147.14 120.713 154.636 114.561 159.911 106.667C165.185 98.7738 168 89.4935 168 80C167.987 67.2737 162.925 55.0724 153.927 46.0735C144.928 37.0746 132.726 32.0132 120 32ZM120 112C113.671 112 107.484 110.123 102.222 106.607C96.9594 103.091 92.8579 98.0931 90.4359 92.2459C88.0139 86.3986 87.3802 79.9645 88.6149 73.7571C89.8496 67.5497 92.8973 61.8479 97.3726 57.3726C101.848 52.8973 107.55 49.8496 113.757 48.6149C119.965 47.3801 126.399 48.0138 132.246 50.4359C138.093 52.8579 143.091 56.9594 146.607 62.2218C150.123 67.4841 152 73.671 152 80C152 88.4869 148.629 96.6262 142.627 102.627C136.626 108.629 128.487 112 120 112Z" fill="#454C9B"/>
</svg>
