<svg width="192" height="192" viewBox="0 0 192 192" fill="none" xmlns="http://www.w3.org/2000/svg">
<path d="M184.78 134.128L137.56 112.998C135.73 112.206 133.73 111.882 131.743 112.057C129.757 112.231 127.844 112.898 126.18 113.998C126.047 114.082 125.92 114.176 125.8 114.278L101 135.418C100.448 135.754 99.8218 135.95 99.1764 135.986C98.531 136.023 97.8865 135.9 97.3001 135.628C81.0601 127.788 64.2501 111.108 56.4101 95.0577C56.1328 94.4757 56.0041 93.834 56.0355 93.1901C56.0669 92.5461 56.2574 91.92 56.5901 91.3677L77.7901 66.1577C77.8901 66.0377 77.9801 65.9077 78.0701 65.7777C79.166 64.1157 79.8312 62.2072 80.0058 60.2241C80.1804 58.241 79.8588 56.2456 79.0701 54.4177L57.9001 7.27772C56.8781 4.89019 55.1091 2.89865 52.8588 1.60218C50.6084 0.305715 47.9982 -0.225705 45.4201 0.0877259C32.8358 1.74693 21.2858 7.93036 12.9274 17.4831C4.56899 27.0358 -0.0261995 39.3045 0.000112372 51.9977C0.000112372 129.198 62.8001 191.998 140 191.998C152.693 192.024 164.962 187.429 174.515 179.07C184.067 170.712 190.251 159.162 191.91 146.578C192.221 144.011 191.695 141.413 190.411 139.17C189.126 136.927 187.151 135.158 184.78 134.128ZM184 145.578C182.588 156.235 177.343 166.013 169.245 173.084C161.147 180.155 150.751 184.035 140 183.998C67.2201 183.998 8.00011 124.778 8.00011 51.9977C7.96287 41.2472 11.8424 30.8511 18.9134 22.7532C25.9844 14.6552 35.7627 9.40985 46.4201 7.99773C46.58 7.98779 46.7403 7.98779 46.9001 7.99773C47.6892 8.00445 48.4588 8.24445 49.1118 8.68753C49.7648 9.1306 50.2722 9.75694 50.5701 10.4877L71.6801 57.6277C71.9264 58.2039 72.0339 58.8298 71.994 59.4551C71.954 60.0804 71.7677 60.6876 71.4501 61.2277L50.2601 86.4277C50.1601 86.5577 50.0601 86.6777 49.9701 86.8177C48.8412 88.5441 48.1763 90.5323 48.0397 92.5905C47.9031 94.6486 48.2993 96.7073 49.1901 98.5677C57.8801 116.358 75.8001 134.148 93.7901 142.838C95.6632 143.723 97.7336 144.108 99.7997 143.955C101.866 143.803 103.857 143.118 105.58 141.968L105.95 141.688L130.78 120.568C131.311 120.243 131.912 120.05 132.533 120.003C133.153 119.956 133.776 120.057 134.35 120.298L181.56 141.458C182.357 141.789 183.025 142.37 183.465 143.112C183.904 143.855 184.092 144.72 184 145.578Z" fill="#565EC4"/>
</svg>
