<svg width="146" height="146" viewBox="0 0 146 146" fill="none" xmlns="http://www.w3.org/2000/svg">
<path d="M124.724 21.2434C117.997 14.483 109.986 9.12298 101.156 5.47579C92.3255 1.8286 82.854 -0.0327047 73.2935 0.000434857C33.2352 0.000434857 0.586936 32.4853 0.586936 72.3432C0.586936 85.1182 3.96181 97.5281 10.2714 108.478L0 146L38.5176 135.926C49.1558 141.693 61.1146 144.759 73.2935 144.759C113.352 144.759 146 112.274 146 72.4162C146 53.0713 138.443 34.8943 124.724 21.2434ZM73.2935 132.495C62.4352 132.495 51.797 129.575 42.4794 124.1L40.2784 122.786L17.3879 128.772L23.4774 106.58L22.0101 104.317C15.9774 94.732 12.7742 83.6527 12.7658 72.3432C12.7658 39.2013 39.9116 12.1914 73.2201 12.1914C89.3608 12.1914 104.548 18.4694 115.92 29.8573C121.55 35.4343 126.013 42.0677 129.048 49.3733C132.083 56.6788 133.631 64.5111 133.601 72.4162C133.748 105.558 106.602 132.495 73.2935 132.495ZM106.455 87.5272C104.621 86.6512 95.6703 82.2712 94.0563 81.6142C92.3688 81.0302 91.195 80.7382 89.9477 82.4902C88.7005 84.3152 85.2523 88.4032 84.2251 89.5712C83.198 90.8122 82.0975 90.9582 80.2633 90.0092C78.4291 89.1332 72.5598 87.1622 65.6633 81.0302C60.2342 76.2122 56.6392 70.2992 55.5387 68.4742C54.5116 66.6492 55.392 65.7002 56.3457 64.7512C57.1528 63.9482 58.1799 62.6342 59.0603 61.6122C59.9407 60.5902 60.3075 59.7873 60.8945 58.6193C61.4814 57.3783 61.1879 56.3563 60.7477 55.4803C60.3075 54.6043 56.6392 45.6983 55.1719 42.0483C53.7045 38.5443 52.1638 38.9823 51.0633 38.9093H47.5417C46.2945 38.9093 44.3869 39.3473 42.6995 41.1723C41.0854 42.9973 36.3899 47.3773 36.3899 56.2833C36.3899 65.1892 42.9196 73.8032 43.8 74.9712C44.6804 76.2122 56.6392 94.4622 74.8342 102.273C79.1628 104.171 82.5377 105.266 85.1789 106.069C89.5075 107.456 93.4693 107.237 96.6241 106.799C100.146 106.288 107.409 102.419 108.876 98.1851C110.417 93.9512 110.417 90.3742 109.904 89.5712C109.39 88.7682 108.289 88.4032 106.455 87.5272Z" fill="#454C9B"/>
</svg>
